<?xml version="1.0" encoding="UTF-8"?>
<svg id="Capa_1" data-name="Capa 1" xmlns="http://www.w3.org/2000/svg" xmlns:xlink="http://www.w3.org/1999/xlink" viewBox="0 0 573.76 92.32">
  <defs>
    <style>
      .cls-1 {
        fill: url(#Degradado_sin_nombre_48-2);
      }

      .cls-2 {
        fill: #89878c;
      }

      .cls-3 {
        fill: url(#Degradado_sin_nombre_134);
      }

      .cls-4 {
        fill: url(#Degradado_sin_nombre_101);
      }

      .cls-5 {
        fill: url(#Degradado_sin_nombre_109);
      }

      .cls-6 {
        fill: url(#Degradado_sin_nombre_128);
      }

      .cls-7 {
        fill: url(#Degradado_sin_nombre_119);
      }

      .cls-8 {
        fill: #d71b22;
      }

      .cls-9 {
        fill: #c3c5ca;
      }

      .cls-10 {
        fill: url(#Degradado_sin_nombre_96);
      }

      .cls-11 {
        fill: url(#Degradado_sin_nombre_48);
      }

      .cls-12 {
        fill: url(#Degradado_sin_nombre_61);
      }
    </style>
    <linearGradient id="Degradado_sin_nombre_134" data-name="Degradado sin nombre 134" x1="264.48" y1="47.92" x2="264.48" y2="75.89" gradientUnits="userSpaceOnUse">
      <stop offset=".21" stop-color="#d82023"/>
      <stop offset=".26" stop-color="#d9312a"/>
      <stop offset=".31" stop-color="#da3e2f"/>
      <stop offset=".36" stop-color="#db4331"/>
      <stop offset=".38" stop-color="#db4634"/>
      <stop offset=".4" stop-color="#dd503d"/>
      <stop offset=".42" stop-color="#e0614d"/>
      <stop offset=".44" stop-color="#e57863"/>
      <stop offset=".46" stop-color="#eb9780"/>
      <stop offset=".47" stop-color="#f0b199"/>
      <stop offset=".49" stop-color="#eeaa92"/>
      <stop offset=".51" stop-color="#ea987f"/>
      <stop offset=".54" stop-color="#e47b60"/>
      <stop offset=".55" stop-color="#e16a4e"/>
      <stop offset=".56" stop-color="#e0664b"/>
      <stop offset=".58" stop-color="#dc4d39"/>
      <stop offset=".6" stop-color="#da3e2e"/>
      <stop offset=".61" stop-color="#da392b"/>
      <stop offset=".7" stop-color="#d82d27"/>
      <stop offset=".86" stop-color="#d71f23"/>
      <stop offset="1" stop-color="#d71b22"/>
    </linearGradient>
    <linearGradient id="Degradado_sin_nombre_96" data-name="Degradado sin nombre 96" x1="14.49" y1="53.91" x2="14.49" y2="92.47" gradientUnits="userSpaceOnUse">
      <stop offset=".15" stop-color="#d82023"/>
      <stop offset=".24" stop-color="#d9312a"/>
      <stop offset=".35" stop-color="#da3e2f"/>
      <stop offset=".45" stop-color="#db4331"/>
      <stop offset=".5" stop-color="#da3f2f"/>
      <stop offset=".53" stop-color="#da392b"/>
      <stop offset=".64" stop-color="#d82d27"/>
      <stop offset=".83" stop-color="#d71f23"/>
      <stop offset="1" stop-color="#d71b22"/>
    </linearGradient>
    <linearGradient id="Degradado_sin_nombre_61" data-name="Degradado sin nombre 61" x1="93.22" y1="40.6" x2="93.22" y2="93.55" gradientUnits="userSpaceOnUse">
      <stop offset=".33" stop-color="#d82023"/>
      <stop offset=".35" stop-color="#d9312a"/>
      <stop offset=".39" stop-color="#da3e2f"/>
      <stop offset=".42" stop-color="#db4331"/>
      <stop offset=".43" stop-color="#db4634"/>
      <stop offset=".44" stop-color="#dd503d"/>
      <stop offset=".45" stop-color="#e0614d"/>
      <stop offset=".46" stop-color="#e57863"/>
      <stop offset=".47" stop-color="#eb9780"/>
      <stop offset=".48" stop-color="#f0b199"/>
      <stop offset=".49" stop-color="#eeaa92"/>
      <stop offset=".52" stop-color="#ea987f"/>
      <stop offset=".54" stop-color="#e47b60"/>
      <stop offset=".55" stop-color="#e16a4e"/>
      <stop offset=".55" stop-color="#e0664b"/>
      <stop offset=".56" stop-color="#dc4d39"/>
      <stop offset=".56" stop-color="#da3e2e"/>
      <stop offset=".57" stop-color="#da392b"/>
      <stop offset=".67" stop-color="#d82d27"/>
      <stop offset=".85" stop-color="#d71f23"/>
      <stop offset="1" stop-color="#d71b22"/>
    </linearGradient>
    <linearGradient id="Degradado_sin_nombre_109" data-name="Degradado sin nombre 109" x1="56.44" y1="61.12" x2="56.44" y2="88.49" gradientUnits="userSpaceOnUse">
      <stop offset=".15" stop-color="#d82023"/>
      <stop offset=".2" stop-color="#d9312a"/>
      <stop offset=".27" stop-color="#da3e2f"/>
      <stop offset=".32" stop-color="#db4331"/>
      <stop offset=".35" stop-color="#db4634"/>
      <stop offset=".37" stop-color="#dd503d"/>
      <stop offset=".39" stop-color="#e0614d"/>
      <stop offset=".41" stop-color="#e57863"/>
      <stop offset=".42" stop-color="#eb9780"/>
      <stop offset=".44" stop-color="#f0b199"/>
      <stop offset=".45" stop-color="#eeaa92"/>
      <stop offset=".47" stop-color="#eb9781"/>
      <stop offset=".5" stop-color="#e57865"/>
      <stop offset=".53" stop-color="#dd4d3d"/>
      <stop offset=".54" stop-color="#da392b"/>
      <stop offset=".65" stop-color="#d82d27"/>
      <stop offset=".83" stop-color="#d71f23"/>
      <stop offset="1" stop-color="#d71b22"/>
    </linearGradient>
    <linearGradient id="Degradado_sin_nombre_128" data-name="Degradado sin nombre 128" x1="204.58" y1="46.21" x2="204.58" y2="83.13" gradientUnits="userSpaceOnUse">
      <stop offset=".3" stop-color="#d82023"/>
      <stop offset=".32" stop-color="#d9312a"/>
      <stop offset=".35" stop-color="#da3e2f"/>
      <stop offset=".38" stop-color="#db4331"/>
      <stop offset=".4" stop-color="#db4634"/>
      <stop offset=".42" stop-color="#dd503d"/>
      <stop offset=".44" stop-color="#e0614d"/>
      <stop offset=".45" stop-color="#e57863"/>
      <stop offset=".47" stop-color="#eb9780"/>
      <stop offset=".48" stop-color="#f0b199"/>
      <stop offset=".49" stop-color="#eeaa92"/>
      <stop offset=".51" stop-color="#ea987f"/>
      <stop offset=".53" stop-color="#e47b60"/>
      <stop offset=".54" stop-color="#e16a4e"/>
      <stop offset=".55" stop-color="#e0664b"/>
      <stop offset=".62" stop-color="#dc4d39"/>
      <stop offset=".68" stop-color="#da3e2e"/>
      <stop offset=".73" stop-color="#da392b"/>
      <stop offset=".79" stop-color="#d82d27"/>
      <stop offset=".9" stop-color="#d71f23"/>
      <stop offset="1" stop-color="#d71b22"/>
    </linearGradient>
    <linearGradient id="Degradado_sin_nombre_48" data-name="Degradado sin nombre 48" x1="339.07" y1="40.23" x2="339.07" y2="82.56" gradientUnits="userSpaceOnUse">
      <stop offset=".28" stop-color="#d82023"/>
      <stop offset=".3" stop-color="#d9312a"/>
      <stop offset=".32" stop-color="#da3e2f"/>
      <stop offset=".34" stop-color="#db4331"/>
      <stop offset=".37" stop-color="#db4634"/>
      <stop offset=".4" stop-color="#dd503d"/>
      <stop offset=".42" stop-color="#e0614d"/>
      <stop offset=".44" stop-color="#e57863"/>
      <stop offset=".46" stop-color="#eb9780"/>
      <stop offset=".48" stop-color="#f0b199"/>
      <stop offset=".49" stop-color="#eeaa92"/>
      <stop offset=".52" stop-color="#ea987f"/>
      <stop offset=".54" stop-color="#e47b60"/>
      <stop offset=".55" stop-color="#e16a4e"/>
      <stop offset=".55" stop-color="#e0664b"/>
      <stop offset=".56" stop-color="#dc4d39"/>
      <stop offset=".56" stop-color="#da3e2e"/>
      <stop offset=".57" stop-color="#da392b"/>
      <stop offset=".67" stop-color="#d82d27"/>
      <stop offset=".85" stop-color="#d71f23"/>
      <stop offset="1" stop-color="#d71b22"/>
    </linearGradient>
    <linearGradient id="Degradado_sin_nombre_101" data-name="Degradado sin nombre 101" x1="513.41" y1="60.42" x2="511.49" y2="77.1" gradientUnits="userSpaceOnUse">
      <stop offset=".28" stop-color="#d82023"/>
      <stop offset=".33" stop-color="#d9312a"/>
      <stop offset=".38" stop-color="#da3e2f"/>
      <stop offset=".43" stop-color="#db4331"/>
      <stop offset=".48" stop-color="#da3f2f"/>
      <stop offset=".51" stop-color="#da392b"/>
      <stop offset=".63" stop-color="#d82d27"/>
      <stop offset=".83" stop-color="#d71f23"/>
      <stop offset="1" stop-color="#d71b22"/>
    </linearGradient>
    <linearGradient id="Degradado_sin_nombre_48-2" data-name="Degradado sin nombre 48" x1="424.44" y1="43.49" x2="424.44" y2="91.62" xlink:href="#Degradado_sin_nombre_48"/>
    <linearGradient id="Degradado_sin_nombre_119" data-name="Degradado sin nombre 119" x1="140.81" y1="50.06" x2="140.81" y2="74.43" gradientUnits="userSpaceOnUse">
      <stop offset=".15" stop-color="#d82023"/>
      <stop offset=".23" stop-color="#d9312a"/>
      <stop offset=".32" stop-color="#da3e2f"/>
      <stop offset=".41" stop-color="#db4331"/>
      <stop offset=".44" stop-color="#db4634"/>
      <stop offset=".46" stop-color="#dd503d"/>
      <stop offset=".48" stop-color="#e0614d"/>
      <stop offset=".5" stop-color="#e57863"/>
      <stop offset=".52" stop-color="#eb9780"/>
      <stop offset=".53" stop-color="#f0b199"/>
      <stop offset=".55" stop-color="#eeaa92"/>
      <stop offset=".59" stop-color="#ea987f"/>
      <stop offset=".62" stop-color="#e47b60"/>
      <stop offset=".64" stop-color="#e16a4e"/>
      <stop offset=".65" stop-color="#e0664b"/>
      <stop offset=".69" stop-color="#dc4d39"/>
      <stop offset=".73" stop-color="#da3e2e"/>
      <stop offset=".76" stop-color="#da392b"/>
      <stop offset=".82" stop-color="#d82d27"/>
      <stop offset=".91" stop-color="#d71f23"/>
      <stop offset="1" stop-color="#d71b22"/>
    </linearGradient>
  </defs>
  <path class="cls-3" d="M280.52,68.31s6.98-5.09,7.1-5.09,8.5,9.74,8.5,9.74c-.64,2.16-8.75,7.31-8.75,7.31-5.28,3.55-11.97,5.33-20.08,5.33-10.03,0-18.28-3.04-24.74-9.13-6.46-6.08-9.69-14.4-9.69-24.95,0-11.16,3.25-19.83,9.74-26.01,6.49-6.18,15.03-9.26,25.62-9.26,9.24,0,16.75,2.42,22.53,7.27,0,0,4.25,3.39,5.37,5.59l-8.5,8.54s-2.67-3.24-6.25-5.03l-3.59-1.79c-2.84-2.01-6.28-3.02-10.34-3.02-5.6,0-10.15,1.78-13.63,5.35-3.49,3.57-5.23,9.35-5.23,17.34,0,8.48,1.72,14.52,5.15,18.12,3.44,3.6,7.9,5.4,13.4,5.4,4.06,0,7.54-1.14,10.46-3.43l2.92-2.29Z"/>
  <path class="cls-10" d="M8.64,17.59h11.7v68.01h-11.7V17.59Z"/>
  <path class="cls-12" d="M87.36,17.59h11.7v68.01h-11.7V17.59Z"/>
  <path class="cls-5" d="M35.93,17.59h16.58c6.7,0,11.99,1.87,15.88,5.6,3.88,3.74,5.82,8.81,5.82,15.23,0,3.3-.74,6.48-2.21,9.55-1.47,3.07-3.62,5.39-6.43,6.95l11.37,30.67h-15.03l-11.51-30.98h-.24v30.98h-14.23V17.59ZM50.17,30.73v16.15c6.29-.14,9.44-2.53,9.44-7.18,0-3.16-.73-5.42-2.18-6.78s-3.88-2.09-7.26-2.19Z"/>
  <path class="cls-6" d="M184.08,17.59h16.58c6.7,0,11.99,1.87,15.88,5.6,3.88,3.74,5.82,8.81,5.82,15.23,0,3.3-.74,6.48-2.21,9.55-1.47,3.07-3.62,5.39-6.43,6.95l11.37,30.67h-15.03l-11.51-30.98h-.24v30.98h-14.23V17.59ZM198.31,30.73v16.15c6.29-.14,9.44-2.53,9.44-7.18,0-3.16-.73-5.42-2.18-6.78s-3.88-2.09-7.26-2.19Z"/>
  <circle class="cls-8" cx="463.46" cy="78.22" r="7.38"/>
  <circle class="cls-8" cx="557.73" cy="78.22" r="7.38"/>
  <path class="cls-11" d="M339.07,16.25c-19.15,0-34.68,15.52-34.68,34.68s15.52,34.68,34.68,34.68,34.68-15.52,34.68-34.68-15.52-34.68-34.68-34.68ZM339.07,74.43c-12.98,0-23.51-10.52-23.51-23.51s10.52-23.51,23.51-23.51,23.51,10.52,23.51,23.51-10.52,23.51-23.51,23.51Z"/>
  <path class="cls-4" d="M516.39,17.59h-12.99l-24.65,68.01h13.11l4.81-13.47h27.42l4.33,13.47h13.86l-25.88-68.01ZM502.44,58.18l7.94-19.38,7.94,19.38h-15.87Z"/>
  <path class="cls-1" d="M443.75,27.74l-9.17,8.09c-3.22-4.48-6.5-6.72-9.84-6.72-1.62,0-2.95.44-3.99,1.3-1.03.87-1.55,1.85-1.55,2.94s.37,2.12,1.11,3.1c1,1.3,4.03,4.08,9.08,8.36,4.73,3.95,7.59,6.44,8.6,7.48,2.51,2.54,4.29,4.96,5.34,7.28,1.05,2.32,1.57,4.84,1.57,7.59,0,5.34-1.85,9.75-5.54,13.23s-8.5,5.22-14.44,5.22c-4.63,0-8.67-1.14-12.11-3.41-3.44-2.27-6.38-5.84-8.83-10.7l10.41-6.28c3.13,5.75,6.73,8.63,10.81,8.63,2.13,0,3.91-.62,5.36-1.86s2.17-2.67,2.17-4.29c0-1.47-.55-2.95-1.64-4.42-1.09-1.47-3.5-3.73-7.22-6.77-7.09-5.78-11.67-10.24-13.74-13.38-2.07-3.14-3.1-6.27-3.1-9.4,0-4.51,1.72-8.38,5.16-11.61,3.44-3.23,7.68-4.84,12.73-4.84,3.25,0,6.34.75,9.28,2.26,2.94,1.5,6.12,4.25,9.54,8.23Z"/>
  <polygon class="cls-2" points="339.07 43.84 358 6.72 315.56 47.61 332.86 47.61 319.12 85.6 362.27 43.84 339.07 43.84"/>
  <polygon class="cls-9" points="319.12 85.6 338.92 46.16 329.02 46.16 358 6.72 315.56 47.61 332.86 47.61 319.12 85.6"/>
  <path class="cls-7" d="M146.69,17.59h-12.99l-24.65,68.01h13.11l4.81-13.47h27.42l4.33,13.47h13.86l-25.88-68.01ZM132.74,58.18l7.94-19.38,7.94,19.38h-15.87Z"/>
</svg>