<?xml version="1.0" encoding="utf-8"?>
<!-- Generator: Adobe Illustrator 22.0.1, SVG Export Plug-In . SVG Version: 6.00 Build 0)  -->
<svg version="1.1" id="Layer_1" xmlns="http://www.w3.org/2000/svg" xmlns:xlink="http://www.w3.org/1999/xlink" x="0px" y="0px"
	 viewBox="0 0 184 60" style="enable-background:new 0 0 184 60;" xml:space="preserve">
<style type="text/css">
	.st0{fill:#EB7805;}
	.st1{fill:#132A86;}
	.st2{fill:#515356;}
</style>
<g>
	<path class="st0" d="M37.2,38.3c-0.3,1.2-0.4,2.4-0.4,3.6c0.1,4.1,1.9,7.1,5.6,8.9c1.5,0.8,3.2,1.2,4.9,1.4
		c1.6,0.2,3.1,0.2,4.7,0.2c2.5-0.1,4.9-0.5,7.3-1.2c4.9-1.3,9.5-3.3,13.9-5.8c3.6-2,6.9-4.4,10.1-7c0.1-0.1,0.3-0.2,0.4-0.2
		c2.2,0,4.4,0,6.5,0c0,0,0.1,0,0.2,0c-0.5,0.4-0.9,0.8-1.3,1.2c-7.1,6.4-15.1,11.4-24,14.7c-3.1,1.2-6.2,2-9.4,2.6
		c-1.7,0.3-3.5,0.5-5.2,0.6c-2.5,0.1-5.1-0.1-7.5-0.7c-2.6-0.7-5-1.9-6.8-4c-1.4-1.6-2.2-3.5-2.5-5.6c-0.4-3,0.1-5.8,1.1-8.6
		c0-0.1,0.1-0.2,0.2-0.2C35.7,38.3,36.4,38.3,37.2,38.3z"/>
	<path class="st0" d="M48.9,19.4c0.7-0.6,1.5-1.3,2.3-1.9c4-3.2,8.3-6,12.9-8.4c3.7-1.9,7.6-3.5,11.6-4.7c2.3-0.7,4.6-1.2,7-1.5
		c2-0.3,4.1-0.4,6.1-0.4c2.9,0.1,5.7,0.6,8.4,1.9c3.1,1.6,5.1,3.9,6,7.3c0.4,1.4,0.5,2.9,0.3,4.3c-0.1,1-0.3,2-0.5,3
		c0,0.3-0.2,0.4-0.5,0.4c-1.7,0-3.4,0-5.1,0c-0.1,0-0.2,0-0.4,0c0.1-0.5,0.2-1,0.3-1.4c0.4-2.4,0.3-4.7-0.7-7
		c-1-2.3-2.8-3.8-5.1-4.8c-1.7-0.8-3.6-1.2-5.4-1.3c-3.5-0.3-7,0.1-10.4,0.9c-4.5,1.1-8.8,2.8-12.9,5c-4.1,2.2-8,4.8-11.5,7.7
		c-0.2,0.1-0.4,0.3-0.5,0.4C50.2,19.6,49.6,19.5,48.9,19.4z"/>
	<path class="st1" d="M53,19.5c0.6-0.5,1.1-0.9,1.7-1.3c4.4-3.4,9.2-6.2,14.5-8.2c3-1.2,6.1-2,9.3-2.4c2.7-0.3,5.4-0.4,8.1,0.2
		c2.1,0.5,4,1.4,5.5,3c0.2,0.3,0.5,0.6,0.7,0.9c0.1,0.1,0.2,0.2,0.2,0.4c0,0-0.1,0-0.1-0.1c-1.4-1.5-3.2-2.4-5.2-2.9
		c-2-0.5-4-0.5-6-0.4c-4.5,0.3-8.7,1.6-12.8,3.5c-4.2,1.9-8.1,4.3-11.8,7.2c-0.1,0.1-0.3,0.2-0.4,0.2c-1.1,0-2.3,0-3.4,0
		C53.2,19.6,53.2,19.5,53,19.5z"/>
	<path class="st1" d="M69.2,45.6c-1.7,0.7-3.3,1.4-5,2c-2.6,1-5.3,1.7-8.1,2.1c-2.5,0.4-5.1,0.4-7.6,0c-2.2-0.4-4.3-1.2-5.9-2.8
		c-1.4-1.4-2.2-3.1-2.5-5.1C40,41.2,40,40.6,40,40.1c0-0.6,0.1-1.2,0.1-1.8c1.3,0,2.6,0,4,0c0,0.3,0,0.5,0,0.8
		c-0.1,1.7,0.2,3.4,1.1,4.9c1.1,1.8,2.7,3,4.6,3.7c2.2,0.8,4.5,1,6.9,0.9c4.3-0.2,8.4-1.4,12.4-3.1c0,0,0.1,0,0.1-0.1
		C69.2,45.5,69.2,45.6,69.2,45.6z"/>
	<path class="st2" d="M110.9,25.9c-0.1,0.4-0.3,0.7-0.4,1.1c-0.8,1.9-1.5,3.8-2.3,5.8c-0.1,0.2-0.2,0.3-0.4,0.3
		c-0.4,0-0.8,0.1-1-0.1c-0.2-0.2-0.3-0.6-0.4-0.9c-0.7-1.9-1.4-3.8-2.2-5.6c0-0.1-0.1-0.2-0.2-0.3c0,2.3,0,4.6,0,6.9
		c-0.5,0-1,0-1.6,0c0-3,0-6,0-9c0.2,0,0.3,0,0.5,0c0.7,0,1.4,0,2,0c0.3,0,0.4,0.1,0.5,0.4c0.6,1.8,1.2,3.5,1.8,5.3
		c0,0.1,0.1,0.2,0.1,0.4c0.1-0.2,0.1-0.2,0.2-0.3c0.7-1.8,1.5-3.6,2.2-5.4c0.1-0.2,0.2-0.3,0.5-0.3c0.8,0,1.7,0,2.5,0c0,3,0,6,0,9
		c-0.5,0-1.1,0-1.6,0c0-2.4,0-4.7,0-7.1C110.9,25.9,110.9,25.9,110.9,25.9z"/>
	<path class="st2" d="M160.7,33.1c-1.7-0.1-3.1-0.6-4.1-1.9c-1.6-2-1.1-4.9,1-6.4c1.9-1.3,4.6-1.3,6.5,0.1c1.3,1,2,2.3,1.8,3.9
		c-0.2,1.8-1.2,3.1-2.9,3.8C162.2,33,161.5,33.2,160.7,33.1z M157.5,28.5c0,1.8,1.4,3.2,3.2,3.2c1.8,0,3.2-1.4,3.2-3.2
		c0-1.7-1.4-3.2-3.2-3.2C158.9,25.3,157.5,26.7,157.5,28.5z"/>
	<path class="st2" d="M171.7,29.5c0-1.8,0-3.7,0-5.5c0.6,0,1.2,0,1.8,0c0,3,0,6,0,9c-0.5,0-1,0-1.5,0c-0.1,0-0.2-0.1-0.3-0.3
		c-1.2-1.7-2.4-3.5-3.5-5.2c-0.1-0.1-0.1-0.2-0.3-0.3c0,1.9,0,3.8,0,5.8c-0.5,0-1.1,0-1.6,0c0-0.1,0-0.2,0-0.4c0-2.8,0-5.6,0-8.3
		c0-0.3,0.1-0.3,0.3-0.3c0.3,0,0.7,0,1,0c0.2,0,0.3,0.1,0.5,0.3c1.1,1.7,2.3,3.4,3.4,5.1C171.5,29.4,171.6,29.5,171.7,29.5
		C171.7,29.6,171.7,29.5,171.7,29.5z"/>
	<path class="st2" d="M15.4,27.3c0,1.9,0,3.8,0,5.8c-0.5,0-1,0-1.4,0c-0.1,0-0.2-0.1-0.2-0.2c0-0.2,0-0.3,0-0.5c0-2.7,0-5.3,0-8
		c0-0.4,0-0.4,0.4-0.4c0.3,0,0.6,0,0.9,0c0.3,0,0.4,0.1,0.5,0.3c1.1,1.7,2.2,3.3,3.4,5c0.1,0.1,0.1,0.2,0.3,0.3c0-1.8,0-3.7,0-5.5
		c0.6,0,1.2,0,1.8,0c0,3,0,6,0,9c-0.5,0-1,0-1.5,0c-0.1,0-0.2-0.1-0.3-0.2c-1.2-1.8-2.4-3.5-3.6-5.3C15.6,27.5,15.6,27.4,15.4,27.3
		C15.5,27.3,15.5,27.3,15.4,27.3z"/>
	<path class="st2" d="M77.3,33.1c-1.4,0-2.7-0.5-3.7-1.4c-2.1-2-1.8-5.3,0.7-6.9c2-1.3,4-1.3,6-0.1c1.5,0.9,2.3,2.3,2.2,4
		c-0.1,1.9-1.2,3.2-2.9,3.9C78.8,33,78.2,33.1,77.3,33.1z M77.4,31.7c1.8,0,3.2-1.4,3.2-3.2c0-1.8-1.4-3.2-3.2-3.2
		c-1.8,0-3.2,1.5-3.2,3.2C74.1,30.3,75.6,31.7,77.4,31.7z"/>
	<path class="st2" d="M128.7,33.1c-1.6-0.1-3.1-0.6-4.1-1.9c-1.7-2-1.2-5,1-6.4c1.9-1.3,4.7-1.3,6.5,0.2c2.8,2.2,2.2,6.3-1.1,7.7
		C130.3,33,129.5,33.2,128.7,33.1z M128.8,31.7c1.8,0,3.2-1.4,3.2-3.2c0-1.8-1.5-3.2-3.2-3.2c-1.8,0-3.2,1.5-3.2,3.2
		C125.5,30.3,127,31.7,128.8,31.7z"/>
	<path class="st2" d="M65.5,24c1.3,0,2.5-0.1,3.7,0.4c0.7,0.3,1.2,0.6,1.7,1.2c0.7,0.9,0.7,2-0.1,2.8c-0.3,0.4-0.8,0.6-1.2,1
		c0.7,1.1,1.4,2.4,2.1,3.6c-0.7,0-1.3,0-1.8,0c-0.1,0-0.2-0.1-0.2-0.2c-0.5-0.9-1.1-1.8-1.6-2.7c-0.1-0.3-0.3-0.4-0.6-0.2
		c0,1.1,0,2.1,0,3.2c-0.7,0-1.3,0-1.9,0C65.5,30,65.5,27,65.5,24z M67.5,28.3c0.6,0.1,1.4-0.2,1.7-0.6c0.2-0.3,0.4-0.6,0.3-1
		c-0.2-0.7-1.2-1.3-2-1.1C67.5,26.5,67.5,27.4,67.5,28.3z"/>
	<path class="st2" d="M21.5,33.1c0-3.1,0-6.1,0-9.1c0.1,0,0.2,0,0.3,0c1.1,0,2.2,0,3.3,0.1c2.4,0.2,4,2.1,3.9,4.5
		c-0.1,2.3-1.6,4.1-3.9,4.3C23.9,33.1,22.7,33.1,21.5,33.1z M23.1,31.5c0.6,0,1.2,0,1.8,0c1.3-0.1,2.3-1.1,2.6-2.3
		c0.3-1.3-0.3-2.6-1.3-3.2c-0.9-0.6-2-0.5-3-0.5C23.1,27.5,23.1,29.5,23.1,31.5z"/>
	<path class="st2" d="M13.7,33.1c-0.5,0-1,0-1.5,0c-0.1,0-0.2-0.1-0.2-0.2c-0.4-0.9-0.8-1.7-1.2-2.6C10.6,30,10.5,30,10.3,30
		c-1.1,0-2.1,0-3.2,0c-0.2,0-0.3,0.1-0.4,0.3c-0.4,0.9-0.8,1.7-1.2,2.6c-0.1,0.2-0.2,0.3-0.4,0.3c-0.4,0-0.9,0-1.4,0
		c0.1-0.1,0.1-0.3,0.1-0.4c1.3-2.8,2.5-5.6,3.8-8.4C7.8,24.1,8,24,8.2,24c0.3,0,0.7,0,1,0c0.2,0,0.4,0.1,0.5,0.3
		c1.3,2.8,2.5,5.5,3.8,8.3C13.6,32.8,13.6,32.9,13.7,33.1z M8.7,25.9c-0.4,0.9-0.7,1.6-1.1,2.4c0.8,0,1.4,0,2.2,0
		C9.5,27.5,9.1,26.7,8.7,25.9z"/>
	<path class="st2" d="M54.3,31.4c1.5,0,3,0,4.5,0c0,0.6,0,1.1,0,1.6c-2,0-4,0-6,0c0-3,0-6,0-9c2,0,4,0,6,0c0,0.5,0,0.9,0,1.4
		c0,0.1-0.2,0.2-0.3,0.2c-1.2,0-2.4,0-3.7,0c-0.1,0-0.1,0-0.2,0c-0.3,0-0.3,0.1-0.3,0.3c0,0.6,0,1.2,0,1.8c1.2,0,2.4,0,3.6,0
		c0,0.6,0,1.1,0,1.6c-0.1,0-0.3,0-0.4,0c-0.8,0-1.5,0-2.3,0c-0.9,0-0.9,0-0.9,0.9C54.3,30.6,54.3,31,54.3,31.4z"/>
	<path class="st2" d="M31,25.6c0,0.7,0,1.4,0,2.1c1.2,0,2.3,0,3.6,0c0,0.5,0,1,0,1.5c0,0.1-0.2,0.2-0.3,0.2c-0.9,0-1.9,0-2.8,0
		c-0.4,0-0.4,0-0.4,0.4c0,0.6,0,1.1,0,1.7c1.5,0,3,0,4.4,0c0,0.6,0,1.1,0,1.6c-2,0-3.9,0-5.9,0c0-3,0-6,0-9c2,0,3.9,0,6,0
		c0,0.5,0,0.9,0,1.4c0,0-0.2,0.1-0.3,0.1c-1.2,0-2.5,0-3.7,0C31.3,25.5,31.1,25.6,31,25.6z"/>
	<path class="st2" d="M90.9,29.3c0,0.7,0,1.4,0,2.1c1.5,0,2.9,0,4.4,0c0,0.6,0,1.1,0,1.6c-2,0-3.9,0-5.9,0c0-3,0-6,0-9
		c2,0,3.9,0,6,0c0,0.5,0,0.9,0,1.4c0,0.1-0.2,0.1-0.3,0.1c-1.1,0-2.1,0-3.2,0c-0.3,0-0.6,0-1,0c0,0.7,0,1.4,0,2.1c1.2,0,2.3,0,3.6,0
		c0,0.5,0,1,0,1.5c0,0.1-0.2,0.1-0.3,0.1c-0.9,0-1.9,0-2.8,0C91.2,29.3,91.1,29.3,90.9,29.3z"/>
	<path class="st2" d="M174,31.9c0.4-0.4,0.7-0.9,1.1-1.3c0.3,0.3,0.6,0.5,0.8,0.7c0.6,0.4,1.2,0.5,1.8,0.3c0.7-0.3,0.9-0.9,0.3-1.4
		c-0.2-0.2-0.5-0.4-0.8-0.6c-0.7-0.4-1.4-0.8-2.1-1.2c-1-0.5-1.2-1.4-1.1-2.4c0.1-1.1,0.8-1.8,2-2c1.6-0.4,3,0,4.2,1.1
		c-0.4,0.4-0.7,0.9-1.1,1.3c-0.3-0.3-0.7-0.6-1-0.8c-0.6-0.4-1.2-0.4-1.8-0.1c-0.6,0.3-0.7,0.8-0.3,1.3c0.3,0.3,0.6,0.5,0.9,0.7
		c0.7,0.4,1.5,0.8,2.2,1.2c1.3,0.7,1.4,3.3-0.3,4.1C177.4,33.5,175.2,33.2,174,31.9z"/>
	<path class="st2" d="M116.9,32c0.4-0.5,0.7-0.9,1.1-1.3c0.3,0.2,0.6,0.5,0.8,0.7c0.6,0.5,1.2,0.5,1.9,0.2c0.6-0.3,0.7-0.8,0.3-1.3
		c-0.2-0.2-0.6-0.4-0.9-0.6c-0.7-0.4-1.5-0.8-2.2-1.2c-0.9-0.5-1.1-1.3-1-2.2c0-0.9,0.5-1.5,1.4-1.9c1.3-0.6,3.4-0.6,4.9,0.8
		c-0.4,0.4-0.7,0.9-1.1,1.3c-0.3-0.3-0.6-0.6-1-0.8c-0.6-0.4-1.2-0.4-1.8-0.1c-0.6,0.3-0.7,0.8-0.3,1.3c0.2,0.3,0.5,0.5,0.8,0.6
		c0.8,0.4,1.5,0.9,2.3,1.3c1.3,0.7,1.4,3.3-0.2,4.1c-1.4,0.6-2.8,0.6-4.1-0.1C117.5,32.4,117.2,32.2,116.9,32z"/>
	<path class="st2" d="M42.2,25.1c-0.4,0.5-0.7,0.9-1.1,1.3c-0.3-0.3-0.6-0.5-0.9-0.8c-0.5-0.4-1.1-0.5-1.7-0.2
		c-0.7,0.3-0.9,0.9-0.3,1.5c0.2,0.2,0.5,0.4,0.7,0.5c0.8,0.4,1.6,0.9,2.3,1.3c1.2,0.6,1.4,3.2-0.2,4c-1.4,0.7-2.8,0.6-4.2-0.1
		c-0.3-0.2-0.6-0.4-0.9-0.6c0.4-0.5,0.8-0.9,1.1-1.3c0.3,0.3,0.6,0.6,1,0.8c0.6,0.4,1.2,0.4,1.8,0.1c0.6-0.3,0.7-0.8,0.3-1.3
		c-0.2-0.3-0.6-0.5-0.9-0.6c-0.7-0.4-1.5-0.9-2.3-1.2c-1.3-0.6-1.4-3.3,0.2-4c1.5-0.7,2.9-0.6,4.3,0.2
		C41.7,24.7,41.9,24.9,42.2,25.1z"/>
	<path class="st2" d="M140.8,24c0.6,0,1.1,0,1.6,0c0,0.1,0,0.3,0,0.4c0,2,0,4,0,6c0,0.4,0.1,0.6,0.4,0.8c0.6,0.4,1.7,0.4,2.1-0.2
		c0.1-0.2,0.2-0.4,0.2-0.6c0-2,0-4,0-6c0-0.1,0-0.2,0-0.4c0.5,0,1,0,1.6,0c0,0.1,0,0.3,0,0.4c0,1.9-0.1,3.8,0,5.8
		c0.1,1.6-1.2,2.6-2.4,2.9c-1.5,0.3-3.1-0.6-3.6-2.1c0-0.1-0.1-0.3-0.1-0.4c0-2.1,0-4.3,0-6.4C140.8,24.2,140.8,24.1,140.8,24z"/>
	<path class="st2" d="M95.8,24c0.6,0,1.1,0,1.6,0c0,0.1,0,0.3,0,0.4c0,2,0,4,0,6.1c0,0.4,0.2,0.7,0.5,0.9c0.5,0.3,1.1,0.3,1.6,0
		c0.4-0.2,0.6-0.5,0.6-0.9c0-2,0-4,0-5.9c0-0.1,0-0.3,0-0.4c0.5,0,1,0,1.6,0c0,0.1,0,0.2,0,0.4c0,1.9-0.1,3.9,0,5.8
		c0.1,1.5-1.1,2.6-2.4,2.9c-1.5,0.3-3-0.6-3.5-2c-0.1-0.1-0.1-0.3-0.1-0.5c0-2.1,0-4.2,0-6.3C95.8,24.2,95.8,24.1,95.8,24z"/>
	<path class="st2" d="M48.3,33c-0.7,0-1.3,0-1.9,0c0-3,0-6,0-9c1.5-0.1,2.9-0.1,4.3,0.6c0.8,0.4,1.4,1,1.6,1.9
		c0.1,0.6-0.1,1.1-0.4,1.6c-0.6,0.8-1.4,1.2-2.4,1.4c-0.3,0.1-0.6,0.1-0.9,0.1c-0.2,0-0.3,0.1-0.3,0.3c0,0.9,0,1.7,0,2.6
		C48.3,32.8,48.3,32.9,48.3,33z M48.4,28.3c0.7,0,1.3-0.2,1.8-0.8c0.3-0.3,0.3-0.7,0.1-1.1c-0.2-0.5-1.2-1-1.9-0.9
		c0,0.1,0,0.1,0,0.2C48.4,26.6,48.4,27.4,48.4,28.3z"/>
	<path class="st2" d="M140.3,31.3c0,0.6,0,1.1,0,1.7c-2,0-4,0-6,0c0-3,0-6,0-9c0.6,0,1.1,0,1.7,0c0,2.4,0,4.9,0,7.3
		C137.5,31.3,138.9,31.3,140.3,31.3z"/>
	<path class="st2" d="M82.9,33c0-3,0-6,0-9c0.6,0,1.1,0,1.7,0c0,2.4,0,4.9,0,7.3c1.4,0,2.8,0,4.3,0c0,0.6,0,1.1,0,1.7
		C86.9,33,84.9,33,82.9,33z"/>
	<path class="st2" d="M61.3,25.6c-0.7,0-1.4,0-2.1,0c0-0.5,0-1.1,0-1.6c0.1,0,0.2,0,0.3,0c1.7,0,3.5,0,5.2,0c0.3,0,0.4,0.1,0.4,0.4
		c0,0.4,0,0.8,0,1.3c-0.3,0-0.5,0-0.7,0c-0.4,0-0.7,0-1.1,0c-0.3,0-0.4,0.1-0.4,0.4c0,2.2,0,4.4,0,6.6c0,0.1,0,0.3,0,0.4
		c-0.5,0-1,0-1.6,0C61.3,30.6,61.3,28.1,61.3,25.6z"/>
	<path class="st2" d="M153.1,25.6c-0.7,0-1.4,0-2.1,0c0,2.5,0,4.9,0,7.4c-0.5,0-1.1,0-1.6,0c0-2.5,0-4.9,0-7.4c-0.7,0-1.4,0-2.1,0
		c0-0.5,0-1.1,0-1.6c1.9,0,3.9,0,5.8,0C153.1,24.6,153.1,25.1,153.1,25.6z"/>
	<path class="st2" d="M155.1,33c-0.5,0-1,0-1.5,0c0-3,0-6,0-9c0.5,0,1,0,1.5,0C155.1,27,155.1,30,155.1,33z"/>
	<path class="st2" d="M163,28.8C163,28.8,163,28.8,163,28.8c0,0,0-0.1-0.1-0.1c0,0,0-0.1,0-0.1c0,0,0,0,0,0c0,0,0,0,0,0c0,0,0,0,0,0
		c0,0,0,0,0-0.1c0,0,0-0.1,0-0.1c0,0,0-0.1,0-0.1c0,0-0.1-0.1-0.1-0.1c0,0,0,0,0,0c0,0,0-0.1,0-0.1c0,0,0-0.1,0-0.1
		c0,0-0.1-0.1-0.1-0.1c0,0-0.1-0.1-0.1-0.1c0,0,0,0,0,0c0,0,0-0.1,0-0.1c0,0,0-0.1,0-0.1c0-0.1,0-0.1-0.1-0.2c0,0-0.1-0.1-0.1-0.1
		c0,0,0,0,0,0c0,0,0,0,0,0c0,0,0,0,0,0l0,0c0,0,0,0-0.1,0c0,0-0.1-0.1-0.1-0.1c0,0,0-0.1-0.1-0.1c0,0-0.1-0.1-0.1-0.1
		c0,0-0.1-0.1-0.2-0.1c-0.1,0-0.1,0-0.1,0c0,0-0.1,0-0.1,0c0,0,0-0.1-0.1-0.1s-0.1-0.1-0.1-0.1c0,0-0.1,0-0.1,0c0,0-0.1,0-0.1,0
		c0,0,0,0-0.1,0c-0.2,0.1-0.2,0-0.2,0c0,0-0.1-0.1-0.1-0.1c0,0-0.1,0-0.2,0c-0.1,0-0.1,0-0.2,0c0,0-0.1,0.1-0.1,0.1c0,0-0.1,0-0.1,0
		c0,0-0.1,0-0.1,0c0,0-0.1,0-0.1,0c0,0-0.1,0-0.1,0c-0.1,0-0.1,0.1-0.1,0.1c0,0-0.1,0.1-0.1,0.1c0,0-0.1,0.1-0.1,0.1
		c0,0-0.1,0-0.1,0c0,0-0.1,0-0.2,0.1c0,0-0.1,0.1-0.1,0.1c0,0,0,0.1-0.1,0.1c0,0.1-0.1,0.1-0.1,0.1c0,0,0,0-0.1,0c0,0,0,0-0.1,0
		c0,0,0,0-0.1,0c0,0,0,0-0.1,0.1c0,0-0.1,0.1-0.1,0.1c0,0,0,0.1,0,0.1c0,0.1,0,0.1,0,0.1c0,0,0,0-0.1,0.1c0,0,0,0-0.1,0.1
		c0,0,0,0.1-0.1,0.1c0,0,0,0.1,0,0.1c0,0,0,0.1,0,0.1c0,0,0,0.1,0,0.1c0,0,0,0-0.1,0.1c0,0,0,0,0,0.1c0,0,0,0,0,0.1c0,0,0,0.1,0,0.1
		c0,0,0,0.1,0,0.1c0,0,0,0,0,0.1c0,0,0,0,0,0.1c0,0,0,0,0,0.1c0,0,0,0.1,0,0.1c0,0.1,0.1,0.1,0.1,0.1c0,0,0.1,0,0.1,0.1
		c0,0,0.1,0.1,0.1,0.1c0,0,0,0,0.1,0c0,0,0,0,0,0c0,0,0,0,0,0l0,0c0,0,0.1,0.1,0.2,0.1c0.1,0,0.1,0.1,0.2,0.1c0,0,0.1,0,0.1,0
		c0,0,0,0,0,0c0,0,0,0,0,0c0,0,0,0,0,0l0.1,0l0.1,0l0,0c0,0,0,0,0,0c0.1,0.1,0.3,0.2,0.4,0.3c0,0,0.1,0.1,0.1,0.1l0,0l0,0l0,0l0.1,0
		c0.1,0.1,0.1,0.1,0.2,0.2c0,0,0,0,0,0l0,0l0.1,0l0,0c0,0,0,0,0.1,0c0,0,0.1,0,0.1,0c0,0,0.1,0,0.1,0c0,0,0.1,0,0.1,0
		c0,0,0,0,0.1-0.1l0,0l0.1-0.1c0,0,0,0,0,0l0,0l0,0v0h0l0,0l0,0l0.1-0.1c0.1-0.1,0.1-0.1,0.2-0.2c0.1-0.1,0.1-0.1,0.2-0.2
		c0,0,0.1-0.1,0.1-0.1c0,0,0,0,0.1,0l0,0l0,0l0,0l0,0c0.1,0,0.1-0.1,0.2-0.1l0,0l0,0l0,0l0,0c0,0,0,0,0,0c0.2-0.1,0.3-0.2,0.5-0.3
		c0.1-0.1,0.2-0.2,0.3-0.2l0,0c0,0,0,0,0,0C163,28.9,163,28.9,163,28.8C163,28.9,163,28.9,163,28.8C163,28.8,163,28.8,163,28.8
		C163,28.8,163,28.8,163,28.8C163,28.8,163,28.8,163,28.8z M163,28.8C163,28.8,163,28.8,163,28.8C163,28.8,163,28.9,163,28.8
		C163,28.9,162.9,28.9,163,28.8c-0.1,0.1-0.1,0.1-0.1,0.1l0,0c-0.1,0.1-0.2,0.1-0.3,0.2c-0.2,0.2-0.5,0.3-0.8,0.6l0,0h0l0,0l0,0l0,0
		l0,0c0,0,0,0-0.1,0c0,0-0.1,0.1-0.1,0.1c-0.1,0.1-0.1,0.1-0.2,0.2c-0.1,0.1-0.1,0.1-0.2,0.2l-0.1,0.1l0,0h0l0,0l0,0
		c0,0-0.1,0.1-0.1,0.1c0,0,0,0-0.1,0c0,0,0,0-0.1,0c0,0,0,0-0.1,0c0,0,0,0-0.1,0c0,0-0.1,0-0.1-0.1c0,0-0.1-0.1-0.1-0.1
		c-0.1-0.1-0.1-0.1-0.2-0.2l-0.1,0l0,0l0,0l0,0c0,0,0,0,0,0c0,0-0.1-0.1-0.1-0.1c-0.1-0.1-0.1-0.1-0.2-0.1c-0.1,0-0.1-0.1-0.2-0.1
		c0,0-0.1,0-0.1,0c0,0-0.1,0-0.1-0.1c0,0,0,0,0,0c0,0,0,0,0,0c0,0-0.1,0-0.1-0.1c-0.1,0-0.1-0.1-0.2-0.1c-0.1,0-0.1-0.1-0.2-0.1l0,0
		c0,0,0,0,0,0c0,0,0,0,0,0c0,0,0,0-0.1,0c0,0-0.1-0.1-0.1-0.1c0,0-0.1,0-0.1-0.1c0,0-0.1-0.1-0.1-0.2c0,0,0,0,0-0.1c0,0,0,0,0-0.1v0
		c0,0,0,0,0-0.1c0,0,0-0.1,0-0.1c0,0,0-0.1,0-0.1s0.1-0.1,0.1,0c0,0,0,0,0,0c0.1,0.1,0.2,0.2,0.3,0.4c0.2,0.2,0.4,0.4,0.6,0.6
		c0.5,0.5,1,1,1,1c0,0-0.4-0.5-1-1c-0.5-0.5-1-1-1-1c0,0,0-0.1,0-0.1c0,0,0-0.1,0-0.1c0,0,0-0.1,0.1-0.1c0,0,0.1-0.1,0.1-0.1
		c0.1,0.1,0.6,0.8,0.8,1.2c0.5,0.7,0.9,1.2,0.9,1.2c0,0-0.4-0.6-0.9-1.2c-0.2-0.3-0.9-1.2-0.9-1.3c0,0,0-0.1,0-0.1
		c0,0,0-0.1,0.1-0.1c0,0,0,0,0-0.1c0,0,0,0,0,0c0,0,0.1,0,0.1-0.1c0,0,0.1,0,0.1,0c0,0,0.3,0.7,0.7,1.5c0.4,0.8,0.7,1.5,0.7,1.5
		c0,0-0.3-0.7-0.7-1.5c-0.4-0.7-0.7-1.5-0.7-1.6c0,0,0-0.1,0.1-0.1c0,0,0.1-0.1,0.1-0.1c0,0,0.1-0.1,0.1-0.1c0,0,0.1,0,0.1,0
		c0,0,0.1,0,0.1,0c0,0,0.3,1.2,0.5,1.6c0.1,0.5,0.2,0.9,0.3,1.2c0,0.2,0.1,0.3,0.1,0.4c0,0.1,0,0.1,0.1,0.1c0,0,0-0.1,0-0.1
		c0-0.1-0.1-0.2-0.1-0.4c-0.1-0.3-0.2-0.7-0.3-1.2c-0.1-0.5-0.4-1.7-0.4-1.7c0,0,0-0.1,0.1-0.1c0,0,0.1-0.1,0.1-0.1c0,0,0.1,0,0.1,0
		c0,0,0.1,0,0.1,0c0,0,0.1,0,0.1,0c0,0.1,0.1,0.9,0.2,1.8c0.1,0.5,0.1,0.9,0.2,1.3c0,0.2,0,0.3,0.1,0.4c0,0.1,0,0.1,0,0.1
		s0-0.1,0-0.1s0-0.2,0-0.4c0-0.3-0.1-0.8-0.1-1.3c-0.1-0.9-0.2-1.8-0.2-1.8c0,0,0.1,0,0.1-0.1c0,0,0.1,0,0.1,0c0,0,0.1,0,0.1,0
		c0,0,0.1,0,0.1,0c0,0,0.1,0.2,0,0.5c0,0.1,0,0.3-0.1,0.5c0,0.2,0,0.4-0.1,0.6c0,0,0,0,0,0l0,0.1c0,1,0,1.8,0,1.8
		c0,0,0.1-0.8,0.1-1.8l0-0.1c0-0.2,0-0.4,0.1-0.6c0-0.2,0-0.4,0-0.5c0-0.3,0-0.5,0-0.5c0,0,0.1,0,0.1,0c0,0,0.1,0,0.1,0
		c0,0,0.1,0,0.1,0c0,0,0.1,0,0.1,0.1c0,0,0.1,0,0.1,0.1c0,0,0,0,0,0c0,0.1-0.2,0.9-0.3,1.7c-0.1,0.5-0.2,0.9-0.2,1.2
		c0,0.2-0.1,0.3-0.1,0.4c0,0.1,0,0.1,0,0.1c0,0,0,0,0-0.1c0-0.1,0.1-0.2,0.1-0.4c0.1-0.3,0.2-0.8,0.3-1.2c0.2-0.9,0.3-1.7,0.3-1.7
		c0,0,0,0,0.1,0c0,0,0.1,0,0.1,0c0,0,0.1,0,0.1,0.1c0,0,0.1,0.1,0.1,0.1c0,0,0,0.1,0.1,0.1c0,0,0,0.1,0,0.1c0,0-0.4,1.1-0.6,1.6
		c-0.2,0.4-0.3,0.8-0.4,1.1c-0.1,0.1-0.1,0.3-0.1,0.3c0,0.1,0,0.1,0,0.1c0,0,0,0,0.1-0.1l0.1-0.3c0.1-0.3,0.3-0.7,0.5-1.1
		c0.2-0.4,0.5-1.5,0.5-1.5v0c0,0,0.1,0,0.1,0c0,0,0,0,0.1,0c0,0,0,0,0,0c0,0,0,0,0,0c0,0,0,0,0,0c0,0,0,0,0,0c0,0,0.1,0.1,0.1,0.1
		c0,0,0.1,0.1,0.1,0.1c0,0,0,0.1,0,0.1c0,0,0,0.1,0,0.1c0,0-0.5,0.7-0.8,1.3c-0.2,0.4-0.4,0.7-0.6,0.9c-0.1,0.2-0.2,0.4-0.2,0.4
		c0,0,0.1-0.1,0.2-0.4c0.1-0.2,0.3-0.6,0.6-0.9c0.4-0.6,0.7-1.1,0.8-1.3c0,0,0,0,0,0c0,0,0.1,0,0.1,0.1c0,0,0.1,0.1,0.1,0.1
		c0,0,0,0.1,0,0.1c0,0,0,0.1,0,0.1c0,0-0.2,0.2-0.2,0.3c-0.1,0.1-0.2,0.2-0.3,0.3c-0.1,0.1-0.1,0.1-0.2,0.2c0,0-0.1,0.1-0.1,0.1
		l-0.1,0.1c-0.1,0.1-0.2,0.3-0.3,0.4c-0.1,0.1-0.2,0.2-0.3,0.3c-0.1,0.2-0.2,0.3-0.2,0.3c0,0,0.1-0.1,0.3-0.3
		c0.1-0.1,0.2-0.2,0.3-0.3c0.1-0.1,0.2-0.3,0.3-0.4l0.2-0.2l0.2-0.2c0.1-0.1,0.2-0.2,0.3-0.3c0.1-0.1,0.2-0.2,0.2-0.2
		c0,0,0.1,0.1,0.1,0.1c0,0,0,0,0,0.1c0,0,0,0.1,0,0.1c0,0,0,0,0,0.1c0,0,0,0,0,0c0,0,0,0,0,0c0,0,0,0,0,0c0,0,0,0,0,0.1
		c0,0,0,0,0,0.1c0,0,0,0,0,0C162.9,28.7,162.9,28.8,163,28.8C163,28.8,163,28.8,163,28.8C163,28.8,163,28.8,163,28.8L163,28.8z
		 M158.5,28.4C158.5,28.4,158.5,28.4,158.5,28.4C158.5,28.4,158.5,28.4,158.5,28.4C158.5,28.4,158.5,28.4,158.5,28.4z"/>
	<path class="st2" d="M131,28.8C131,28.8,131,28.8,131,28.8c0,0,0-0.1-0.1-0.1c0,0,0-0.1,0-0.1c0,0,0,0,0,0c0,0,0,0,0,0c0,0,0,0,0,0
		c0,0,0,0,0-0.1c0,0,0-0.1,0-0.1c0,0,0-0.1,0-0.1c0,0-0.1-0.1-0.1-0.1c0,0,0,0,0,0c0,0,0-0.1,0-0.1c0,0,0-0.1,0-0.1
		c0,0-0.1-0.1-0.1-0.1c0,0-0.1-0.1-0.1-0.1c0,0,0,0,0,0c0,0,0-0.1,0-0.1c0,0,0-0.1,0-0.1c0-0.1,0-0.1-0.1-0.2c0,0-0.1-0.1-0.1-0.1
		c0,0,0,0,0,0c0,0,0,0,0,0c0,0,0,0,0,0l0,0c0,0,0,0-0.1,0c0,0-0.1-0.1-0.1-0.1c0,0,0-0.1-0.1-0.1c0,0-0.1-0.1-0.1-0.1
		c0,0-0.1-0.1-0.2-0.1c-0.1,0-0.1,0-0.1,0c0,0-0.1,0-0.1,0c0,0,0-0.1-0.1-0.1s-0.1-0.1-0.1-0.1c0,0-0.1,0-0.1,0c0,0-0.1,0-0.1,0
		c0,0,0,0-0.1,0c-0.2,0.1-0.2,0-0.2,0c0,0-0.1-0.1-0.1-0.1c0,0-0.1,0-0.2,0c-0.1,0-0.1,0-0.2,0c0,0-0.1,0.1-0.1,0.1c0,0-0.1,0-0.1,0
		c0,0-0.1,0-0.1,0c0,0-0.1,0-0.1,0c0,0-0.1,0-0.1,0c-0.1,0-0.1,0.1-0.1,0.1c0,0-0.1,0.1-0.1,0.1c0,0-0.1,0.1-0.1,0.1
		c0,0-0.1,0-0.1,0c0,0-0.1,0-0.2,0.1c0,0-0.1,0.1-0.1,0.1c0,0,0,0.1-0.1,0.1c0,0.1-0.1,0.1-0.1,0.1c0,0,0,0-0.1,0c0,0,0,0-0.1,0
		c0,0,0,0-0.1,0c0,0,0,0-0.1,0.1c0,0-0.1,0.1-0.1,0.1c0,0,0,0.1,0,0.1c0,0.1,0,0.1,0,0.1c0,0,0,0-0.1,0.1c0,0,0,0-0.1,0.1
		c0,0,0,0.1-0.1,0.1c0,0,0,0.1,0,0.1c0,0,0,0.1,0,0.1c0,0,0,0.1,0,0.1c0,0,0,0-0.1,0.1c0,0,0,0,0,0.1c0,0,0,0,0,0.1c0,0,0,0.1,0,0.1
		c0,0,0,0.1,0,0.1c0,0,0,0,0,0.1c0,0,0,0,0,0.1c0,0,0,0,0,0.1c0,0,0,0.1,0,0.1c0,0.1,0.1,0.1,0.1,0.1c0,0,0.1,0,0.1,0.1
		c0,0,0.1,0.1,0.1,0.1c0,0,0,0,0.1,0c0,0,0,0,0,0c0,0,0,0,0,0l0,0c0,0,0.1,0.1,0.2,0.1c0.1,0,0.1,0.1,0.2,0.1c0,0,0.1,0,0.1,0
		c0,0,0,0,0,0c0,0,0,0,0,0c0,0,0,0,0,0l0.1,0l0.1,0l0,0c0,0,0,0,0,0c0.1,0.1,0.3,0.2,0.4,0.3c0,0,0.1,0.1,0.1,0.1l0,0l0,0l0,0l0.1,0
		c0.1,0.1,0.1,0.1,0.2,0.2c0,0,0,0,0,0l0,0l0.1,0l0,0c0,0,0,0,0.1,0c0,0,0.1,0,0.1,0c0,0,0.1,0,0.1,0c0,0,0.1,0,0.1,0
		c0,0,0,0,0.1-0.1l0,0l0.1-0.1c0,0,0,0,0,0l0,0l0,0v0h0l0,0l0,0l0.1-0.1c0.1-0.1,0.1-0.1,0.2-0.2c0.1-0.1,0.1-0.1,0.2-0.2
		c0,0,0.1-0.1,0.1-0.1c0,0,0,0,0.1,0l0,0l0,0l0,0l0,0c0.1,0,0.1-0.1,0.2-0.1l0,0l0,0l0,0l0,0c0,0,0,0,0,0c0.2-0.1,0.3-0.2,0.5-0.3
		c0.1-0.1,0.2-0.2,0.3-0.2l0,0c0,0,0,0,0,0C131,28.9,131,28.9,131,28.8C131.1,28.9,131.1,28.9,131,28.8
		C131.1,28.8,131.1,28.8,131,28.8C131.1,28.8,131.1,28.8,131,28.8C131.1,28.8,131,28.8,131,28.8z M131,28.8
		C131,28.8,131,28.8,131,28.8C131,28.8,131,28.9,131,28.8C131,28.9,131,28.9,131,28.8c-0.1,0.1-0.1,0.1-0.1,0.1l0,0
		c-0.1,0.1-0.2,0.1-0.3,0.2c-0.2,0.2-0.5,0.3-0.8,0.6l0,0h0l0,0l0,0l0,0l0,0c0,0,0,0-0.1,0c0,0-0.1,0.1-0.1,0.1
		c-0.1,0.1-0.1,0.1-0.2,0.2c-0.1,0.1-0.1,0.1-0.2,0.2l-0.1,0.1l0,0h0l0,0l0,0c0,0-0.1,0.1-0.1,0.1c0,0,0,0-0.1,0c0,0,0,0-0.1,0
		c0,0,0,0-0.1,0c0,0,0,0-0.1,0c0,0-0.1,0-0.1-0.1c0,0-0.1-0.1-0.1-0.1c-0.1-0.1-0.1-0.1-0.2-0.2l-0.1,0l0,0l0,0l0,0c0,0,0,0,0,0
		c0,0-0.1-0.1-0.1-0.1c-0.1-0.1-0.1-0.1-0.2-0.1c-0.1,0-0.1-0.1-0.2-0.1c0,0-0.1,0-0.1,0c0,0-0.1,0-0.1-0.1c0,0,0,0,0,0c0,0,0,0,0,0
		c0,0-0.1,0-0.1-0.1c-0.1,0-0.1-0.1-0.2-0.1c-0.1,0-0.1-0.1-0.2-0.1l0,0c0,0,0,0,0,0c0,0,0,0,0,0c0,0,0,0-0.1,0c0,0-0.1-0.1-0.1-0.1
		c0,0-0.1,0-0.1-0.1c0,0-0.1-0.1-0.1-0.2c0,0,0,0,0-0.1c0,0,0,0,0-0.1v0c0,0,0,0,0-0.1c0,0,0-0.1,0-0.1c0,0,0-0.1,0-0.1
		c0,0,0.1-0.1,0.1,0c0,0,0,0,0,0c0.1,0.1,0.2,0.2,0.3,0.4c0.2,0.2,0.4,0.4,0.6,0.6c0.5,0.5,1,1,1,1c0,0-0.4-0.5-1-1
		c-0.5-0.5-1-1-1-1c0,0,0-0.1,0-0.1c0,0,0-0.1,0-0.1c0,0,0-0.1,0.1-0.1c0,0,0.1-0.1,0.1-0.1c0.1,0.1,0.6,0.8,0.8,1.2
		c0.5,0.7,0.9,1.2,0.9,1.2c0,0-0.4-0.6-0.9-1.2c-0.2-0.3-0.9-1.2-0.9-1.3c0,0,0-0.1,0-0.1c0,0,0-0.1,0.1-0.1c0,0,0,0,0-0.1
		c0,0,0,0,0,0c0,0,0.1,0,0.1-0.1c0,0,0.1,0,0.1,0c0,0,0.3,0.7,0.7,1.5c0.4,0.8,0.7,1.5,0.7,1.5c0,0-0.3-0.7-0.7-1.5
		c-0.4-0.7-0.7-1.5-0.7-1.6c0,0,0-0.1,0.1-0.1c0,0,0.1-0.1,0.1-0.1c0,0,0.1-0.1,0.1-0.1c0,0,0.1,0,0.1,0c0,0,0.1,0,0.1,0
		c0,0,0.3,1.2,0.5,1.6c0.1,0.5,0.2,0.9,0.3,1.2c0,0.2,0.1,0.3,0.1,0.4c0,0.1,0,0.1,0.1,0.1c0,0,0-0.1,0-0.1c0-0.1-0.1-0.2-0.1-0.4
		c-0.1-0.3-0.2-0.7-0.3-1.2c-0.1-0.5-0.4-1.7-0.4-1.7c0,0,0-0.1,0.1-0.1c0,0,0.1-0.1,0.1-0.1c0,0,0.1,0,0.1,0c0,0,0.1,0,0.1,0
		c0,0,0.1,0,0.1,0c0,0.1,0.1,0.9,0.2,1.8c0.1,0.5,0.1,0.9,0.2,1.3c0,0.2,0,0.3,0.1,0.4c0,0.1,0,0.1,0,0.1s0-0.1,0-0.1s0-0.2,0-0.4
		c0-0.3-0.1-0.8-0.1-1.3c-0.1-0.9-0.2-1.8-0.2-1.8c0,0,0.1,0,0.1-0.1c0,0,0.1,0,0.1,0c0,0,0.1,0,0.1,0c0,0,0.1,0,0.1,0
		c0,0,0.1,0.2,0,0.5c0,0.1,0,0.3-0.1,0.5c0,0.2,0,0.4-0.1,0.6c0,0,0,0,0,0l0,0.1c0,1,0,1.8,0,1.8c0,0,0.1-0.8,0.1-1.8l0-0.1
		c0-0.2,0-0.4,0.1-0.6c0-0.2,0-0.4,0-0.5c0-0.3,0-0.5,0-0.5c0,0,0.1,0,0.1,0c0,0,0.1,0,0.1,0c0,0,0.1,0,0.1,0c0,0,0.1,0,0.1,0.1
		c0,0,0.1,0,0.1,0.1c0,0,0,0,0,0c0,0.1-0.2,0.9-0.3,1.7c-0.1,0.5-0.2,0.9-0.2,1.2c0,0.2-0.1,0.3-0.1,0.4c0,0.1,0,0.1,0,0.1
		c0,0,0,0,0-0.1c0-0.1,0.1-0.2,0.1-0.4c0.1-0.3,0.2-0.8,0.3-1.2c0.2-0.9,0.3-1.7,0.3-1.7c0,0,0,0,0.1,0c0,0,0.1,0,0.1,0
		c0,0,0.1,0,0.1,0.1c0,0,0.1,0.1,0.1,0.1c0,0,0,0.1,0.1,0.1c0,0,0,0.1,0,0.1c0,0-0.4,1.1-0.6,1.6c-0.2,0.4-0.3,0.8-0.4,1.1
		c-0.1,0.1-0.1,0.3-0.1,0.3c0,0.1,0,0.1,0,0.1c0,0,0,0,0.1-0.1l0.1-0.3c0.1-0.3,0.3-0.7,0.5-1.1c0.2-0.4,0.5-1.5,0.5-1.5v0
		c0,0,0.1,0,0.1,0c0,0,0,0,0.1,0c0,0,0,0,0,0c0,0,0,0,0,0c0,0,0,0,0,0c0,0,0,0,0,0c0,0,0.1,0.1,0.1,0.1c0,0,0.1,0.1,0.1,0.1
		c0,0,0,0.1,0,0.1c0,0,0,0.1,0,0.1c0,0-0.5,0.7-0.8,1.3c-0.2,0.4-0.4,0.7-0.6,0.9c-0.1,0.2-0.2,0.4-0.2,0.4c0,0,0.1-0.1,0.2-0.4
		c0.1-0.2,0.3-0.6,0.6-0.9c0.4-0.6,0.7-1.1,0.8-1.3c0,0,0,0,0,0c0,0,0.1,0,0.1,0.1c0,0,0.1,0.1,0.1,0.1c0,0,0,0.1,0,0.1
		c0,0,0,0.1,0,0.1c0,0-0.2,0.2-0.2,0.3c-0.1,0.1-0.2,0.2-0.3,0.3c-0.1,0.1-0.1,0.1-0.2,0.2c0,0-0.1,0.1-0.1,0.1l-0.1,0.1
		c-0.1,0.1-0.2,0.3-0.3,0.4c-0.1,0.1-0.2,0.2-0.3,0.3c-0.1,0.2-0.2,0.3-0.2,0.3c0,0,0.1-0.1,0.3-0.3c0.1-0.1,0.2-0.2,0.3-0.3
		c0.1-0.1,0.2-0.3,0.3-0.4l0.2-0.2l0.2-0.2c0.1-0.1,0.2-0.2,0.3-0.3c0.1-0.1,0.2-0.2,0.2-0.2c0,0,0.1,0.1,0.1,0.1c0,0,0,0,0,0.1
		c0,0,0,0.1,0,0.1c0,0,0,0,0,0.1c0,0,0,0,0,0c0,0,0,0,0,0c0,0,0,0,0,0c0,0,0,0,0,0.1c0,0,0,0,0,0.1c0,0,0,0,0,0
		C131,28.7,131,28.8,131,28.8C131,28.8,131,28.8,131,28.8C131,28.8,131,28.8,131,28.8L131,28.8z M126.6,28.4
		C126.6,28.4,126.6,28.4,126.6,28.4C126.6,28.4,126.6,28.4,126.6,28.4C126.6,28.4,126.6,28.4,126.6,28.4z"/>
	<path class="st2" d="M79.6,28.8C79.6,28.8,79.6,28.8,79.6,28.8c0,0,0-0.1-0.1-0.1c0,0,0-0.1,0-0.1c0,0,0,0,0,0c0,0,0,0,0,0
		c0,0,0,0,0,0c0,0,0,0,0-0.1c0,0,0-0.1,0-0.1c0,0,0-0.1,0-0.1c0,0-0.1-0.1-0.1-0.1c0,0,0,0,0,0c0,0,0-0.1,0-0.1c0,0,0-0.1,0-0.1
		c0,0-0.1-0.1-0.1-0.1c0,0-0.1-0.1-0.1-0.1c0,0,0,0,0,0c0,0,0-0.1,0-0.1c0,0,0-0.1,0-0.1c0-0.1,0-0.1-0.1-0.2c0,0-0.1-0.1-0.1-0.1
		c0,0,0,0,0,0c0,0,0,0,0,0c0,0,0,0,0,0l0,0c0,0,0,0-0.1,0c0,0-0.1-0.1-0.1-0.1c0,0,0-0.1-0.1-0.1c0,0-0.1-0.1-0.1-0.1
		c0,0-0.1-0.1-0.2-0.1c-0.1,0-0.1,0-0.1,0c0,0-0.1,0-0.1,0c0,0,0-0.1-0.1-0.1c0,0-0.1-0.1-0.1-0.1c0,0-0.1,0-0.1,0c0,0-0.1,0-0.1,0
		c0,0,0,0-0.1,0c-0.2,0.1-0.2,0-0.2,0c0,0-0.1-0.1-0.1-0.1c0,0-0.1,0-0.2,0c-0.1,0-0.1,0-0.2,0c0,0-0.1,0.1-0.1,0.1c0,0-0.1,0-0.1,0
		s-0.1,0-0.1,0c0,0-0.1,0-0.1,0c0,0-0.1,0-0.1,0c-0.1,0-0.1,0.1-0.1,0.1c0,0-0.1,0.1-0.1,0.1c0,0-0.1,0.1-0.1,0.1c0,0-0.1,0-0.1,0
		c0,0-0.1,0-0.2,0.1c0,0-0.1,0.1-0.1,0.1c0,0,0,0.1-0.1,0.1c0,0.1-0.1,0.1-0.1,0.1c0,0,0,0-0.1,0c0,0,0,0-0.1,0c0,0,0,0-0.1,0
		c0,0,0,0-0.1,0.1c0,0-0.1,0.1-0.1,0.1c0,0,0,0.1,0,0.1c0,0.1,0,0.1,0,0.1c0,0,0,0-0.1,0.1c0,0,0,0-0.1,0.1c0,0,0,0.1-0.1,0.1
		c0,0,0,0.1,0,0.1c0,0,0,0.1,0,0.1c0,0,0,0.1,0,0.1c0,0,0,0-0.1,0.1c0,0,0,0,0,0.1c0,0,0,0,0,0.1c0,0,0,0.1,0,0.1c0,0,0,0.1,0,0.1
		c0,0,0,0,0,0.1c0,0,0,0,0,0.1c0,0,0,0,0,0.1c0,0,0,0.1,0,0.1c0,0.1,0.1,0.1,0.1,0.1c0,0,0.1,0,0.1,0.1c0,0,0.1,0.1,0.1,0.1
		c0,0,0,0,0.1,0c0,0,0,0,0,0c0,0,0,0,0,0l0,0c0,0,0.1,0.1,0.2,0.1c0.1,0,0.1,0.1,0.2,0.1c0,0,0.1,0,0.1,0c0,0,0,0,0,0c0,0,0,0,0,0
		c0,0,0,0,0,0l0.1,0l0.1,0l0,0c0,0,0,0,0,0c0.1,0.1,0.3,0.2,0.4,0.3c0,0,0.1,0.1,0.1,0.1l0,0l0,0l0,0l0.1,0c0.1,0.1,0.1,0.1,0.2,0.2
		c0,0,0,0,0,0l0,0l0.1,0l0,0c0,0,0,0,0.1,0c0,0,0.1,0,0.1,0c0,0,0.1,0,0.1,0c0,0,0.1,0,0.1,0c0,0,0,0,0.1-0.1l0,0l0.1-0.1
		c0,0,0,0,0,0l0,0l0,0v0h0l0,0l0,0l0.1-0.1c0.1-0.1,0.1-0.1,0.2-0.2c0.1-0.1,0.1-0.1,0.2-0.2c0,0,0.1-0.1,0.1-0.1c0,0,0,0,0.1,0l0,0
		l0,0l0,0l0,0c0.1,0,0.1-0.1,0.2-0.1l0,0l0,0l0,0l0,0c0,0,0,0,0,0c0.2-0.1,0.3-0.2,0.5-0.3c0.1-0.1,0.2-0.2,0.3-0.2l0,0c0,0,0,0,0,0
		C79.6,28.9,79.6,28.9,79.6,28.8C79.6,28.9,79.7,28.9,79.6,28.8C79.7,28.8,79.7,28.8,79.6,28.8C79.7,28.8,79.7,28.8,79.6,28.8
		C79.6,28.8,79.6,28.8,79.6,28.8z M79.6,28.8C79.6,28.8,79.6,28.8,79.6,28.8C79.6,28.8,79.6,28.9,79.6,28.8
		C79.6,28.9,79.6,28.9,79.6,28.8c-0.1,0.1-0.1,0.1-0.1,0.1l0,0c-0.1,0.1-0.2,0.1-0.3,0.2c-0.2,0.2-0.5,0.3-0.8,0.6l0,0h0l0,0l0,0
		l0,0l0,0c0,0,0,0-0.1,0c0,0-0.1,0.1-0.1,0.1C78.1,30,78.1,30,78,30.1c-0.1,0.1-0.1,0.1-0.2,0.2l-0.1,0.1l0,0h0l0,0l0,0
		c0,0-0.1,0.1-0.1,0.1c0,0,0,0-0.1,0c0,0,0,0-0.1,0c0,0,0,0-0.1,0c0,0,0,0-0.1,0c0,0-0.1,0-0.1-0.1c0,0-0.1-0.1-0.1-0.1
		c-0.1-0.1-0.1-0.1-0.2-0.2l-0.1,0l0,0l0,0l0,0c0,0,0,0,0,0c0,0-0.1-0.1-0.1-0.1c-0.1-0.1-0.1-0.1-0.2-0.1c-0.1,0-0.1-0.1-0.2-0.1
		c0,0-0.1,0-0.1,0c0,0-0.1,0-0.1-0.1c0,0,0,0,0,0c0,0,0,0,0,0c0,0-0.1,0-0.1-0.1c-0.1,0-0.1-0.1-0.2-0.1c-0.1,0-0.1-0.1-0.2-0.1l0,0
		c0,0,0,0,0,0c0,0,0,0,0,0c0,0,0,0-0.1,0c0,0-0.1-0.1-0.1-0.1c0,0-0.1,0-0.1-0.1c0,0-0.1-0.1-0.1-0.2c0,0,0,0,0-0.1c0,0,0,0,0-0.1v0
		c0,0,0,0,0-0.1c0,0,0-0.1,0-0.1c0,0,0-0.1,0-0.1s0.1-0.1,0.1,0c0,0,0,0,0,0c0.1,0.1,0.2,0.2,0.3,0.4c0.2,0.2,0.4,0.4,0.6,0.6
		c0.5,0.5,1,1,1,1c0,0-0.4-0.5-1-1c-0.5-0.5-1-1-1-1c0,0,0-0.1,0-0.1c0,0,0-0.1,0-0.1c0,0,0-0.1,0.1-0.1c0,0,0.1-0.1,0.1-0.1
		c0.1,0.1,0.6,0.8,0.8,1.2c0.5,0.7,0.9,1.2,0.9,1.2c0,0-0.4-0.6-0.9-1.2c-0.2-0.3-0.9-1.2-0.9-1.3c0,0,0-0.1,0-0.1
		c0,0,0-0.1,0.1-0.1c0,0,0,0,0-0.1c0,0,0,0,0,0c0,0,0.1,0,0.1-0.1c0,0,0.1,0,0.1,0c0,0,0.3,0.7,0.7,1.5c0.4,0.8,0.7,1.5,0.7,1.5
		c0,0-0.3-0.7-0.7-1.5c-0.4-0.7-0.7-1.5-0.7-1.6c0,0,0-0.1,0.1-0.1c0,0,0.1-0.1,0.1-0.1c0,0,0.1-0.1,0.1-0.1c0,0,0.1,0,0.1,0
		c0,0,0.1,0,0.1,0c0,0,0.3,1.2,0.5,1.6c0.1,0.5,0.2,0.9,0.3,1.2c0,0.2,0.1,0.3,0.1,0.4c0,0.1,0,0.1,0.1,0.1c0,0,0-0.1,0-0.1
		c0-0.1-0.1-0.2-0.1-0.4c-0.1-0.3-0.2-0.7-0.3-1.2c-0.1-0.5-0.4-1.7-0.4-1.7c0,0,0-0.1,0.1-0.1c0,0,0.1-0.1,0.1-0.1c0,0,0.1,0,0.1,0
		c0,0,0.1,0,0.1,0c0,0,0.1,0,0.1,0c0,0.1,0.1,0.9,0.2,1.8c0.1,0.5,0.1,0.9,0.2,1.3c0,0.2,0,0.3,0.1,0.4c0,0.1,0,0.1,0,0.1
		c0,0,0-0.1,0-0.1c0-0.1,0-0.2,0-0.4c0-0.3-0.1-0.8-0.1-1.3c-0.1-0.9-0.2-1.8-0.2-1.8c0,0,0.1,0,0.1-0.1c0,0,0.1,0,0.1,0
		c0,0,0.1,0,0.1,0c0,0,0.1,0,0.1,0c0,0,0.1,0.2,0,0.5c0,0.1,0,0.3-0.1,0.5c0,0.2,0,0.4-0.1,0.6c0,0,0,0,0,0l0,0.1c0,1,0,1.8,0,1.8
		c0,0,0.1-0.8,0.1-1.8l0-0.1c0-0.2,0-0.4,0.1-0.6c0-0.2,0-0.4,0-0.5c0-0.3,0-0.5,0-0.5c0,0,0.1,0,0.1,0c0,0,0.1,0,0.1,0
		c0,0,0.1,0,0.1,0c0,0,0.1,0,0.1,0.1c0,0,0.1,0,0.1,0.1c0,0,0,0,0,0c0,0.1-0.2,0.9-0.3,1.7c-0.1,0.5-0.2,0.9-0.2,1.2
		c0,0.2-0.1,0.3-0.1,0.4c0,0.1,0,0.1,0,0.1c0,0,0,0,0-0.1c0-0.1,0.1-0.2,0.1-0.4c0.1-0.3,0.2-0.8,0.3-1.2c0.2-0.9,0.3-1.7,0.3-1.7
		c0,0,0,0,0.1,0c0,0,0.1,0,0.1,0c0,0,0.1,0,0.1,0.1c0,0,0.1,0.1,0.1,0.1c0,0,0,0.1,0.1,0.1c0,0,0,0.1,0,0.1c0,0-0.4,1.1-0.6,1.6
		c-0.2,0.4-0.3,0.8-0.4,1.1c-0.1,0.1-0.1,0.3-0.1,0.3c0,0.1,0,0.1,0,0.1c0,0,0,0,0.1-0.1l0.1-0.3c0.1-0.3,0.3-0.7,0.5-1.1
		c0.2-0.4,0.5-1.5,0.5-1.5v0c0,0,0.1,0,0.1,0c0,0,0,0,0.1,0c0,0,0,0,0,0c0,0,0,0,0,0c0,0,0,0,0,0c0,0,0,0,0,0c0,0,0.1,0.1,0.1,0.1
		c0,0,0.1,0.1,0.1,0.1c0,0,0,0.1,0,0.1c0,0,0,0.1,0,0.1c0,0-0.5,0.7-0.8,1.3c-0.2,0.4-0.4,0.7-0.6,0.9c-0.1,0.2-0.2,0.4-0.2,0.4
		c0,0,0.1-0.1,0.2-0.4c0.1-0.2,0.3-0.6,0.6-0.9c0.4-0.6,0.7-1.1,0.8-1.3c0,0,0,0,0,0c0,0,0.1,0,0.1,0.1c0,0,0.1,0.1,0.1,0.1
		c0,0,0,0.1,0,0.1c0,0,0,0.1,0,0.1c0,0-0.2,0.2-0.2,0.3c-0.1,0.1-0.2,0.2-0.3,0.3c-0.1,0.1-0.1,0.1-0.2,0.2c0,0-0.1,0.1-0.1,0.1
		l-0.1,0.1c-0.1,0.1-0.2,0.3-0.3,0.4c-0.1,0.1-0.2,0.2-0.3,0.3c-0.1,0.2-0.2,0.3-0.2,0.3c0,0,0.1-0.1,0.3-0.3
		c0.1-0.1,0.2-0.2,0.3-0.3s0.2-0.3,0.3-0.4l0.2-0.2l0.2-0.2c0.1-0.1,0.2-0.2,0.3-0.3c0.1-0.1,0.2-0.2,0.2-0.2c0,0,0.1,0.1,0.1,0.1
		c0,0,0,0,0,0.1c0,0,0,0.1,0,0.1c0,0,0,0,0,0.1c0,0,0,0,0,0c0,0,0,0,0,0c0,0,0,0,0,0c0,0,0,0,0,0.1c0,0,0,0,0,0.1c0,0,0,0,0,0
		C79.6,28.7,79.6,28.8,79.6,28.8C79.6,28.8,79.6,28.8,79.6,28.8C79.6,28.8,79.6,28.8,79.6,28.8L79.6,28.8z M75.2,28.4
		C75.2,28.4,75.2,28.4,75.2,28.4C75.2,28.4,75.2,28.4,75.2,28.4C75.2,28.4,75.2,28.4,75.2,28.4z"/>
</g>
</svg>
